# xmcd
#
# Track frame offsets:
#	150
#	14036
#	29908
#	45708
#	61459
#	75538
#	92716
#	110108
#	128113
#	147590
#	166814
#	178852
#	197441
#	216992
#	234852
#	252866
#	267727
#	286271
#	303658
#
# Disc length: 4271 seconds
#
# Revision: 0
# Processed by: cddbd v1.5.2PL0 Copyright (c) Steve Scherf et al.
# Submitted via: audiograbber 1.83.01
#
DISCID=2310ad13
DTITLE=JonesTM - HC200746
DYEAR=2007
DGENRE=Country
TTITLE0=Big and Rich - Loud
TTITLE1=Taylor Swift - Silent Night
TTITLE2=Kellie Pickler - Santa Baby
TTITLE3=Taylor Swift - Last Christmas
TTITLE4=Taylor Swift - Christmases When You Were Mine
TTITLE5=Lila McCann - That's What Angels Do [Radio Edit]
TTITLE6=Ty Herndon - A Not So Silent Night [Album Version]
TTITLE7=Carrie Underwood - So Small [2007 CMA Performance]
TTITLE8=Martina McBride - For These Times [2007 CMA Performance]
TTITLE9=Aretha Franklin Feat. Fantasia - Put You Up On Game [Album Version]
TTITLE10=Isley Brothers Feat. Ronald Isley - Winter Wonderland
TTITLE11=Patti LaBelle - What Do The Lonely Do At Xmas?
TTITLE12=Donell Jones - Spend The Night
TTITLE13=Andre Delano - Jolly Old Saint Nicholas [Album Version]
TTITLE14=David Wells With Chris Geith - Deck The Halls
TTITLE15=Dave Koz and Kelly Sweet - White Christmas
TTITLE16=Alicia Keys - No One [Album Version]
TTITLE17=Paul Brown - Ol' Skoolin' [Radio Edit]
TTITLE18=Dotsero - Do You Hear What I Hear?
EXTD=
EXTT0=
EXTT1=
EXTT2=
EXTT3=
EXTT4=
EXTT5=
EXTT6=
EXTT7=
EXTT8=
EXTT9=
EXTT10=
EXTT11=
EXTT12=
EXTT13=
EXTT14=
EXTT15=
EXTT16=
EXTT17=
EXTT18=
PLAYORDER=
